<?xml version="1.0" encoding="UTF-8" standalone="no"?><!DOCTYPE svg PUBLIC "-//W3C//DTD SVG 1.1//EN" "http://www.w3.org/Graphics/SVG/1.1/DTD/svg11.dtd"><svg width="100%" height="100%" viewBox="0 0 1393 203" version="1.1" xmlns="http://www.w3.org/2000/svg" xml:space="preserve" style="fill-rule:evenodd;clip-rule:evenodd;stroke-linejoin:round;stroke-miterlimit:2;"><path d="M767.707,93.076c6.592,0 12.817,-0.055 19.042,0.044c1.328,0.021 2.46,-0.495 3.555,-0.891c4.043,-1.462 7.988,-3.26 11.348,-5.975c4.282,-3.461 7.852,-7.456 9.097,-13.146c0.578,-2.612 0.42,-5.179 0.465,-7.769c0.068,-3.806 -1.185,-7.238 -3.255,-10.394c-3.487,-5.345 -8.437,-8.958 -14.085,-11.696c-3.81,-1.844 -7.74,-2.979 -12.09,-2.656c-3.727,0.278 -7.485,0.027 -11.227,0.08c-0.945,0.013 -2.003,-0.393 -2.85,0.419l-0,51.984Zm126.157,-52.425l0,52.425c5.033,0 9.9,-0.239 14.73,0.068c4.763,0.304 9.015,-0.879 13.118,-3.069c0.645,-0.348 1.32,-0.661 1.957,-1.033c4.868,-2.843 8.97,-6.368 11.663,-11.516c2.017,-3.847 1.86,-7.851 1.987,-11.928c0.203,-6.759 -3.24,-11.833 -7.725,-16.209c-3.727,-3.638 -8.505,-5.869 -13.275,-7.896c-1.042,-0.444 -2.235,-0.903 -3.547,-0.883c-6.225,0.092 -12.45,0.041 -18.908,0.041Zm308.093,30.713c-0,-1.616 -0.038,-2.848 -0,-4.077c0.157,-4.362 -0.57,-8.629 -1.575,-12.832c-1.665,-6.928 -5.513,-12.311 -12.495,-14.409c-5.61,-1.688 -11.423,-1.649 -17.138,0.385c-7.462,2.661 -11.287,7.543 -11.677,15.336c-0.038,0.614 -0.015,1.254 -0.188,1.833c-1.14,3.899 0.608,6.992 2.858,9.849c1.627,2.07 3.937,3.369 6.225,4.634c5.287,2.926 11.002,4.884 16.732,6.608c9.728,2.932 19.455,5.818 28.8,9.873c10.47,4.544 19.875,10.457 26.565,20.518l0,-37.718l-38.107,-0Zm-43.65,64.566c0.195,3.986 -0.023,7.581 0.832,11.128c0.72,2.994 1.59,5.896 3.015,8.633c4.065,7.803 16.005,12.018 24.51,9.156c4.988,-1.68 9.503,-4.092 12.533,-8.664c4.477,-6.765 3.442,-15.857 -1.98,-21.102c-3.36,-3.241 -7.163,-5.643 -11.385,-7.483c-7.088,-3.089 -14.505,-5.208 -21.863,-7.517c-9.007,-2.826 -18.007,-5.658 -26.28,-10.382c-3.795,-2.164 -7.297,-4.623 -10.477,-7.612c-3.255,-3.06 -5.955,-6.537 -8.288,-10.634c-0.097,0.661 -0.195,1.022 -0.202,1.385c-0.105,9.96 0.412,19.93 -0.735,29.877c-0.383,3.307 -0.72,6.604 -1.38,9.871c-0.21,1.03 -0.503,2.181 0.262,3.344l41.438,0Zm-83.198,-33.529c0.128,-8.126 -0.585,-15.389 -1.29,-22.673c-0.772,-8.014 -2.385,-15.782 -5.46,-23.203c-1.852,-4.475 -4.477,-8.471 -8.407,-11.508c-5.235,-4.051 -11.333,-4.742 -17.573,-4.263c-5.242,0.401 -9.735,2.753 -12.93,7.065c-1.987,2.671 -3.375,5.691 -4.545,8.812c-3.232,8.607 -4.327,17.645 -5.077,26.691c-0.555,6.679 -0.18,13.422 -0.765,20.121c-0.285,3.219 0.712,6.381 0.615,9.631c-0.158,5.201 0.705,10.331 1.365,15.486c0.81,6.264 2.497,12.234 4.642,18.123c1.29,3.529 3.24,6.706 5.768,9.392c6.015,6.385 13.455,7.212 21.45,4.704c6.54,-2.052 10.815,-6.852 13.912,-12.66c4.815,-9.043 6.593,-18.986 7.485,-29.035c0.51,-5.798 1.38,-11.62 0.81,-16.683Zm209.385,19.027l0,40.461l66.923,-0c0.622,3.15 0.817,31.845 0.322,40.41l-110.64,0c-1.147,-0.783 -0.825,-1.858 -0.825,-2.82c-0.015,-7.874 -0.007,-15.748 -0.007,-23.622l-0,-4.434c-2.19,3.411 -3.42,6.513 -5.288,9.269c-5.535,8.17 -13.005,13.802 -22.095,17.386c-6,2.367 -12.277,3.276 -18.69,3.931c-6.105,0.624 -12.187,0.638 -18.255,0.413c-9.472,-0.348 -18.847,-1.335 -27.825,-4.957c-10.515,-4.242 -18.607,-11.091 -24.307,-20.831c-3.893,-6.651 -6.143,-13.882 -7.388,-21.444c-0.6,-3.627 -1.117,-7.269 -1.777,-11.607c-1.883,7.595 -4.088,14.358 -7.148,20.849c-5.842,12.411 -14.16,22.555 -26.167,29.471c-6.458,3.717 -13.373,6.029 -20.708,7.241c-6.382,1.056 -12.802,1.659 -19.245,1.287c-8.362,-0.482 -16.635,-1.733 -24.39,-5.153c-4.965,-2.189 -9.652,-4.932 -13.717,-8.548c-5.693,-5.055 -10.643,-10.704 -14.385,-17.444c-5.115,-9.218 -8.423,-19 -10.56,-29.281c-1.455,-7.017 -2.31,-14.076 -3.045,-21.194c-0.713,-6.848 -0.458,-13.676 -0.66,-20.513c-0.008,-0.364 -0.09,-0.725 -0.15,-1.139c-1.058,0.985 -1.463,2.3 -1.928,3.483c-2.917,7.341 -7.057,13.844 -12.78,19.32c-4.26,4.08 -9.037,7.208 -15.405,8.247c16.223,24.126 32.595,47.8 49.043,72.12l-61.928,-0c-12.412,-22.118 -24.87,-44.331 -37.755,-67.296l0,67.289l-43.927,-0c-0.083,-0.07 -0.203,-0.136 -0.27,-0.237c-0.06,-0.098 -0.09,-0.232 -0.09,-0.351l-0,-109.382c-1.283,1.056 -1.65,2.311 -2.138,3.402c-4.155,9.354 -10.357,17.174 -18.045,23.814c-5.64,4.873 -12.12,8.38 -19.087,11.058c-5.61,2.159 -11.348,3.093 -17.363,2.966c-8.235,-0.174 -16.477,-0.044 -24.63,-0.044c-0.18,0.189 -0.277,0.272 -0.352,0.372c-0.06,0.093 -0.143,0.207 -0.143,0.312c-0.007,22.614 -0.007,45.228 -0.007,67.812c-2.873,0.556 -40.043,0.675 -44.22,0.166c-0.195,-0.281 -0.593,-0.587 -0.593,-0.893c-0.037,-66.615 -0.052,-133.229 -0.045,-199.844c0,-0.313 0.368,-0.627 0.525,-0.877c0.96,-0.758 2.003,-0.392 2.963,-0.394c22.875,-0.025 45.742,0.042 68.617,-0.081c3.668,-0.02 7.2,0.6 10.523,1.729c8.437,2.869 16.192,7.026 23.137,12.805c8.175,6.806 14.19,15.091 18.675,24.617c0.525,1.105 1.133,2.167 1.973,3.761l-0,-42.101c0.952,-1.096 1.89,-0.731 2.707,-0.732c23.873,-0.02 47.745,0.007 71.618,-0.046c3.03,-0.007 5.925,0.774 8.647,1.707c8.55,2.936 16.44,7.109 23.378,13.099c9.097,7.851 15.57,17.395 19.957,28.512c1.433,3.645 2.535,7.39 3.953,11.809c1.852,-7.617 4.162,-14.34 7.282,-20.737c4.643,-9.519 11.123,-17.599 19.748,-23.818c5.64,-4.066 11.932,-6.815 18.72,-8.342c4.215,-0.95 8.482,-1.469 12.825,-1.713c3.082,-0.173 6.172,-0.636 9.262,-0.444c9.338,0.58 18.623,1.289 27.488,4.859c6.285,2.53 11.895,5.976 16.89,10.441c8.97,8.014 14.73,18.112 18.817,29.307c1.013,2.764 1.928,5.553 2.805,8.351c0.51,1.624 1.148,3.261 1.343,5.08c0.345,-2.149 0.697,-4.296 1.027,-6.446c1.913,-12.48 5.85,-24.164 14.22,-33.874c5.85,-6.785 13.283,-11.378 21.833,-14.069c5.895,-1.854 11.925,-3.095 18.142,-3.069c2.978,0.012 5.873,-0.831 8.88,-0.653c9,0.53 17.955,1.321 26.258,5.194c7.56,3.526 14.257,8.143 19.732,14.665c7.118,8.481 11.603,18.198 14.993,28.556c0.135,-0.483 -0.195,0.274 0.232,0.005c0.098,-0.062 0.21,-0.199 0.21,-0.301c0.008,-15.731 0.008,-31.462 0.008,-46.77c0.69,-1.136 1.327,-1.395 2.152,-1.315c0.495,0.049 1.005,0.009 1.5,0.009l107.565,-0c0.66,3.077 0.878,29.764 0.345,40.017c-0.082,0.094 -0.15,0.208 -0.247,0.277c-0.098,0.065 -0.218,0.114 -0.33,0.114c-22.11,0.004 -44.22,0.004 -66.293,0.004c-0.637,3.248 -0.847,29.861 -0.33,40.361l66.863,0c0.645,3.333 0.84,29.867 0.337,40.458l-67.26,-0Z" style="fill:#ec1a2e;fill-rule:nonzero;"/><path d="M467.375,40.651c-0.73,4.166 -0.079,7.899 -0.481,11.783l-91.989,-0c-0.889,-0.806 -1.729,-2.019 -2.673,-3.162c-3.14,-3.803 -6.895,-6.527 -12.043,-7.335c-2.909,-0.457 -5.918,-0.291 -8.745,-1.269c-5.401,0.832 -10.639,2.061 -14.772,6.009c-1.886,1.803 -3.735,3.637 -5.064,5.877l-45.818,-0c-0.815,-0.912 -0.476,-1.998 -0.246,-2.84c2.635,-9.652 6.126,-18.973 12.327,-26.952c6.177,-7.948 13.956,-13.834 23.448,-17.518c7.096,-2.753 14.388,-4.012 21.928,-4.546c3.087,-0.219 6.175,-0.654 9.258,-0.462c7.641,0.475 15.374,0.484 22.842,2.261c12.954,3.084 24.625,8.708 33.664,18.856c5.806,6.517 10.078,13.958 12.878,22.231c0.39,1.152 0.705,2.328 1.38,3.48l0,-46.33c1.271,-0.873 2.421,-0.533 3.496,-0.534c22.117,-0.023 44.235,0.093 66.351,-0.089c5.963,-0.05 11.439,1.36 16.808,3.596c5.242,2.182 10.206,4.897 14.85,8.18c7.388,5.223 13.434,11.759 18.381,19.277c3.795,5.764 6.638,12.035 8.937,18.549c0.3,0.851 0.378,1.658 0.324,2.713l-45.567,0c-0.718,-0.756 -1.662,-1.748 -2.607,-2.74c-4.401,-4.623 -10.07,-6.981 -15.971,-8.916c-0.342,-0.112 -0.731,-0.114 -1.099,-0.114c-6.48,-0.006 -12.96,-0.005 -19.797,-0.005Z" style="fill:#ec1a2e;fill-rule:nonzero;"/><path d="M46.774,104.07c7.165,-14.671 14.268,-29.217 21.427,-43.875l72.94,0c0.358,3.65 0.111,7.359 0.157,11.055c0.046,3.748 0.01,7.497 0.01,11.247l-0,11.172c0.193,0.049 0.387,0.098 0.579,0.146c5.41,-11.199 10.82,-22.399 16.256,-33.654l70.493,-0c0.64,3.107 0.837,27.137 0.359,43.693c-0.085,0.091 -0.16,0.196 -0.258,0.27c-0.093,0.069 -0.211,0.15 -0.317,0.15c-60.107,0.03 -120.215,0.056 -180.323,0.07c-0.35,0 -0.699,-0.14 -1.322,-0.274Z" style="fill:#ec1a2e;fill-rule:nonzero;"/><path d="M466.913,60.215l0,32.139c0.774,1.054 1.721,0.702 2.542,0.707c4.873,0.032 9.76,-0.209 14.614,0.084c4.152,0.251 7.764,-1.111 11.319,-2.805c2.545,-1.213 4.888,-2.778 7.171,-4.498c5.705,-4.299 8.544,-10.051 9.26,-16.971c0.297,-2.853 -0.653,-5.587 -1.284,-8.338c2.629,-0.647 78.919,-0.893 87.069,-0.24c-1.182,7.24 -2.684,14.402 -3.335,21.712c-0.651,7.322 -0.433,14.639 -0.756,22.149l-43.053,-0c-1.47,-1.585 -0.826,-3.7 -1.152,-6.143c-1.208,2.342 -2.175,4.217 -3.202,6.207l-122.657,0l0,-23.07l-44.145,0c-0.18,-7.156 -1.114,-13.951 -2.433,-20.933l90.042,-0Z" style="fill:#ec1a2e;fill-rule:nonzero;"/><path d="M228.993,111.94l-0,31.187l-43.978,0l0,-28.722l-0.568,-0.161c-4.737,9.551 -9.474,19.101 -14.339,28.906l-73.616,-0l0,-28.824c-0.163,-0.05 -0.326,-0.099 -0.489,-0.149c-5.845,9.724 -11.689,19.449 -17.461,29.049l-50.152,0c0.708,-3.405 10.348,-23.519 14.984,-31.286l185.619,0Z" style="fill:#ec1a2e;fill-rule:nonzero;"/><path d="M555.397,52.516c-0.035,-2.606 0.87,-4.765 1.543,-6.957c2.357,-7.671 5.527,-14.944 10.136,-21.585c6.033,-8.693 13.911,-14.855 23.751,-18.784c7.089,-2.83 14.341,-4.359 21.929,-4.407c1.989,-0.013 3.946,-0.576 5.879,-0.525c11.351,0.297 22.7,0.852 33.197,5.887c4.669,2.24 9.038,4.965 13.041,8.351c7.423,6.279 12.84,14.017 17.015,22.653c2.33,4.821 4.451,9.775 5.674,15.284l-46.387,-0c-1.069,-1.904 -2.74,-3.563 -4.391,-5.244c-3.418,-3.481 -7.529,-5.354 -12.389,-6.007c-3.217,-0.433 -6.286,-0.528 -9.517,0.03c-5.06,0.873 -8.961,3.197 -11.828,7.437c-0.829,1.226 -1.599,2.471 -2.2,3.867l-45.453,0Z" style="fill:#ec1a2e;fill-rule:nonzero;"/><path d="M542.566,111.969c-6.02,9.388 -13.101,16.194 -24.06,18.324c2.88,4.378 5.62,8.542 8.513,12.94l-55.105,0c-1.399,-2.407 -2.809,-4.835 -4.218,-7.263c-0.196,0.035 -0.393,0.07 -0.589,0.104l0,7.115l-87.912,-0c0.432,-3.656 1.798,-7.057 2.489,-10.582c0.703,-3.586 0.713,-7.338 2.177,-11.013l39.465,0l0,-9.625l119.24,0Z" style="fill:#ec1a2e;fill-rule:nonzero;"/><path d="M237.53,104.184l-0,-43.654c3.116,-0.674 31.515,-0.905 44.449,-0.367c0.875,0.743 0.065,1.961 0.774,2.774c0.71,-0.684 0.229,-1.626 0.554,-2.388c2.625,-0.642 38.652,-0.84 45.099,-0.201c-1.903,7.113 -3.394,14.244 -4.116,21.559c-0.721,7.328 -0.516,14.649 -0.76,21.956c-2.986,0.669 -75.874,0.949 -86,0.321Z" style="fill:#ec1a2e;fill-rule:nonzero;"/><path d="M140.846,52.509l-69.2,0c8.396,-17.571 16.694,-34.936 24.939,-52.191l44.083,0c0.243,0.528 0.581,0.952 0.624,1.403c0.452,4.798 0.035,48.672 -0.446,50.788Z" style="fill:#ec1a2e;fill-rule:nonzero;"/><path d="M161.594,52.182c7.784,-17.296 15.572,-34.601 23.358,-51.901l43.106,-0c0.866,0.528 1.034,1.177 1.033,1.994c-0.018,16.614 -0.014,33.229 -0.014,49.748c-0.17,0.187 -0.244,0.294 -0.342,0.368c-0.092,0.07 -0.21,0.148 -0.317,0.148c-21.995,0.028 -43.99,0.051 -65.984,0.058c-0.214,0 -0.428,-0.205 -0.84,-0.415Z" style="fill:#ec1d30;fill-rule:nonzero;"/><path d="M323.611,111.974c-0.432,10.762 1.879,20.828 4.476,30.852c-2.758,0.703 -25.7,0.93 -44.318,0.439c-0.88,-0.399 -0.277,-1.428 -0.883,-1.977c-0.954,0.293 -0.167,1.289 -0.87,1.896l-44.388,0l0,-31.21l85.983,-0Z" style="fill:#ec1a2e;fill-rule:nonzero;"/><path d="M566.3,173.862c-4.066,-4.036 -10.155,-16.6 -10.936,-22.782c2.272,-0.261 4.488,-0.876 6.819,-0.855c3.748,0.033 7.52,-0.26 11.24,0.062c9.068,0.786 18.154,0.323 27.266,0.618c2.637,5.285 6.671,9.087 12.424,10.315c10.908,2.325 19.989,-0.72 26.626,-10.242l47.568,-0c-2.174,7.923 -4.355,15.635 -8.099,22.884l-112.908,0Z" style="fill:#ec1d30;fill-rule:nonzero;"/><path d="M287.081,150.971l43.604,-0c0.154,0.073 0.344,0.31 0.491,0.694c2.539,6.616 7.923,8.886 14.445,9.801c3.913,0.549 7.885,0.931 11.766,1.112c6.2,0.289 11.976,-1.642 15.787,-7.19c0.972,-1.414 1.831,-2.906 2.797,-4.45l45.915,-0c-2.389,7.988 -5.202,15.584 -8.848,22.93l-115.25,0c-4.348,-3.854 -10.584,-17.079 -10.707,-22.897Z" style="fill:#ec1d30;fill-rule:nonzero;"/><path d="M282.302,52.524l-44.373,0c-0.68,-2.953 -0.928,-36.251 -0.378,-51.849c2.924,-0.683 27.951,-0.906 44.364,-0.396c0.712,3.086 0.956,34.773 0.387,52.245Z" style="fill:#ec1a2e;fill-rule:nonzero;"/><path d="M689.909,60.198c2.678,14.481 3.705,29.063 4.26,43.676c-2.97,0.6 -37.949,0.8 -44.746,0.274c-0.584,-7.364 -0.02,-14.791 -0.809,-22.203c-0.779,-7.32 -2.379,-14.431 -4.231,-21.747l45.526,-0Z" style="fill:#ec1a2e;fill-rule:nonzero;"/><path d="M407.016,181.078c-5.951,6.41 -12.166,11.676 -20,15.047c-8.022,3.45 -16.217,5.492 -24.959,5.904c-3.707,0.174 -7.422,0.538 -11.134,0.447c-10.823,-0.269 -21.213,-2.469 -30.917,-7.419c-6.798,-3.468 -12.822,-7.959 -18.045,-13.979l105.055,0Z" style="fill:#ec1d30;fill-rule:nonzero;"/><path d="M571.252,181.021l101.628,0c0.54,1.067 -0.339,1.441 -0.778,1.941c-4.386,5 -9.564,9.085 -15.49,12.001c-6.276,3.088 -12.917,5.262 -19.933,6.163c-5.646,0.723 -11.29,1.552 -16.991,1.351c-11.425,-0.403 -22.447,-2.464 -32.608,-8.105c-2.499,-1.388 -4.834,-3.006 -7.067,-4.7c-3.224,-2.445 -6.341,-5.115 -8.761,-8.651Z" style="fill:#ec1d30;fill-rule:nonzero;"/><path d="M155.292,173.982l-58.276,0c-0.111,-0.108 -0.21,-0.186 -0.289,-0.28c-0.076,-0.091 -0.187,-0.197 -0.187,-0.297c-0.009,-7.358 -0.008,-14.718 -0.008,-22.077c2.622,-0.622 63.953,-0.842 70.264,-0.242c-3.812,7.588 -7.608,15.141 -11.504,22.896Z" style="fill:#ec1d30;fill-rule:nonzero;"/><path d="M597.946,143.209l-44.454,0c-2.075,-10.342 -3.709,-20.629 -3.263,-31.288l43.461,-0c0.817,10.332 1.36,20.763 4.256,31.288Z" style="fill:#ec1a2e;fill-rule:nonzero;"/><path d="M644.29,143.138c1.988,-5.167 3.7,-10.164 4.668,-15.311c0.973,-5.182 1.307,-10.485 1.939,-15.889l41.772,-0c0.42,10.458 -1.62,20.715 -2.617,31.2l-45.762,-0Z" style="fill:#ec1a2e;fill-rule:nonzero;"/><path d="M489.383,173.805c-4.582,-7.201 -8.734,-15.024 -13.507,-22.967l56.025,0c5.487,7.232 10.564,15.066 16.254,22.967l-58.773,-0Z" style="fill:#ec1d30;fill-rule:nonzero;"/><path d="M567.116,202.452l-61.485,0c-3.952,-6.844 -7.984,-13.826 -12.065,-20.892c2.731,-0.765 32.797,-1.02 59.959,-0.606c4.389,6.942 8.845,13.991 13.591,21.498Z" style="fill:#ec1d30;fill-rule:nonzero;"/><path d="M74.412,150.977c-4.948,8.005 -9.587,15.51 -14.141,22.878l-46.59,-0c3.632,-7.805 7.129,-15.32 10.645,-22.878l50.086,-0Z" style="fill:#ec1d30;fill-rule:nonzero;"/><path d="M141.128,202.39l-44.493,0l0,-21.004c2.45,-0.603 49.388,-0.774 54.545,-0.148c-3.335,7.018 -6.64,13.973 -10.052,21.152Z" style="fill:#ec1d30;fill-rule:nonzero;"/><rect x="237.542" y="151.048" width="44.654" height="22.769" style="fill:#ec1d30;"/><rect x="185.12" y="151.032" width="43.867" height="22.801" style="fill:#ec1d30;"/><rect x="423.487" y="151.06" width="43.368" height="22.8" style="fill:#ec1d30;"/><path d="M56.879,181.074c-4.425,7.297 -8.676,14.309 -12.879,21.242l-44,-0c3.32,-7.349 6.481,-14.349 9.595,-21.242l47.284,-0Z" style="fill:#ec1d30;fill-rule:nonzero;"/><path d="M282.27,181.059l0,21.024c-2.918,0.567 -35.999,0.765 -44.605,0.252l-0,-21.276l44.605,0Z" style="fill:#ec1d30;fill-rule:nonzero;"/><path d="M228.874,202.475l-43.392,-0c-0.083,-0.074 -0.182,-0.149 -0.264,-0.239c-0.08,-0.088 -0.205,-0.191 -0.205,-0.288c-0.01,-6.864 -0.009,-13.727 -0.009,-20.584c2.907,-0.611 34.293,-0.83 43.87,-0.298l-0,21.409Z" style="fill:#ec1d30;fill-rule:nonzero;"/><path d="M466.775,202.288c-3.763,0.305 -39.438,0.291 -43.21,-0.028l0,-20.885c2.55,-0.604 36.36,-0.811 43.299,-0.233c0.203,0.358 0.647,0.779 0.647,1.201c0.007,6.364 -0.036,12.729 -0.112,19.092c-0.004,0.297 -0.421,0.588 -0.625,0.853Z" style="fill:#ec1d30;fill-rule:nonzero;"/><path d="M1388.59,17.133c-3.42,-9.663 -12.405,-11.637 -18.173,-9.439c-5.88,2.24 -10.83,8.405 -8.722,16.653c1.665,6.505 8.445,11.197 15.307,10.116c6.143,-0.968 13.02,-5.772 11.588,-17.33Zm-13.59,20.349c-10.05,-0.591 -17.183,-7.861 -16.913,-16.965c0.285,-9.684 6.908,-16.26 16.973,-16.338c9.63,-0.077 17.017,6.344 17.025,16.574c0.007,9.805 -7.08,15.989 -17.085,16.729Z" style="fill:#ec1d30;fill-rule:nonzero;"/><path d="M1377.82,13.747l-6.983,0l0,5.708l6.945,0c0.623,-0.301 1.268,-0.866 1.733,-1.597c0.555,-1.818 0.045,-3.185 -1.695,-4.111Zm4.792,9.533c0.165,2.153 -0.255,4.404 0.923,6.397c-1.17,0.822 -2.28,0.298 -3.405,0.447c-1.208,-2.406 0.502,-5.392 -1.823,-7.511l-7.485,-0l0,6.812c-1.042,1.235 -1.995,0.479 -3.03,0.76l0,-19.486c5.04,0.31 10.185,-1.27 14.7,2.304c0.39,2.045 0.368,4.007 0.12,5.999c-0.48,0.57 -0.952,1.142 -1.44,1.723c0.06,1.083 1.17,1.566 1.44,2.555Z" style="fill:#ec1d30;fill-rule:nonzero;"/></svg>